# xmcd
#
# Track frame offsets:
#	150
#	12170
#	25426
#	42511
#	56683
#	71738
#	85097
#	99890
#	112697
#	124547
#	136911
#	149906
#	165068
#	178850
#	194419
#	207095
#	222115
#	235378
#
# Disc length: 3335 seconds
#
# Revision: 0
# Processed by: cddbd v1.5.2PL0 Copyright (c) Steve Scherf et al.
# Submitted via: EasyCDDAExtractor 16.0.6.1
#
DISCID=f90d0512
DTITLE=Συλλογικός δίσκος - Τραγούδια 45 στροφές-Μοσχολιού Βίκυ 1
DYEAR=1996
DGENRE=Λαϊκή
TTITLE0=Μοσχολιού Βίκυ-Μπογιοπούλου Μ. - Είναι ο δικός μου ο καϋμός [1968, Γρ.
TTITLE0=Μπιθικώτση-Ελ. Λιάκου]
TTITLE1=Μοσχολιού Βίκυ - Όλοι για το συμφέρον [1966, Γιάννη Καραμπεσίνη]
TTITLE2=Μοσχολιού Βίκυ - Η ζωή χωρίς αγάπη είναι άδεια [1966, Γιάννη Καραμπεσί
TTITLE2=νη]
TTITLE3=Μοσχολιού Βίκυ-Καλδάρας Απόστολος - Άλλαξε ο κόσμος [1964, Απ. Καλδάρα
TTITLE3=]
TTITLE4=Μοσχολιού Βίκυ - Το ξέρω καρδιά μου [1968, Ευαγγ. Πιτσιλαδή-Γιάννη Κιο
TTITLE4=ύρκα]
TTITLE5=Μοσχολιού Βίκυ - Καλό ταξείδι [1966, Ζαχ. Δελμούζου-Ν. Δαλέζιου]
TTITLE6=Μοσχολιού Βίκυ-Μάριος - Με το αίμα της καρδιάς μου [1966, Χρ. Κολοκοτρ
TTITLE6=ώνη]
TTITLE7=Μοσχολιού Βίκυ - Αυτά έχει η ζωή [1966, Απ. Καλδάρα]
TTITLE8=Μοσχολιού Βίκυ - Πέντε χρόνια [1970, Κ. Παπαδόπουλου-Γ. Βρούβα]
TTITLE9=Μοσχολιού Βίκυ - Ποια σε φιλάει τώρα [1970, Μ. Πλέσσα-Λευτ. Παπαδόπουλ
TTITLE9=ου]
TTITLE10=Μοσχολιού Βίκυ - Τι να τα κάνω τα νειάτα σου [1964, Ν. Δαλέζιου]
TTITLE11=Μοσχολιού Βίκυ-Καλδάρας Απόστολος - Εγώ θα ζω με τ' όνειρο [1968, Απ.
TTITLE11=Καλδάρα-Ευτ. Παπαγιαννοπούλου]
TTITLE12=Μοσχολιού Βίκυ-Καλδάρας Απόστολος - Είσαι η μοίρα μου εσύ [1964, Απ. 
TTITLE12=Καλδάρα]
TTITLE13=Μοσχολιού Βίκυ - Να τι είναι η ζωή [1965, Ζαχ. Δελμούζου-Ν. Δαλέζιου]
TTITLE14=Μοσχολιού Βίκυ - Ποιος θα με παρηγορήσει [1964, Γιάννη Καραμπεσίνη]
TTITLE15=Μοσχολιού Βίκυ - Ποιος θα με βγάλει απ' τον πόνο [1970, Κ. Παπαδόπουλ
TTITLE15=ου-Γ. Βρούβα]
TTITLE16=Μοσχολιού Βίκυ-Καλδάρας Απόστολος - Μαύρη η ώρα που σ' αντάμωσα [1964
TTITLE16=, Απ. Καλδάρα]
TTITLE17=Μοσχολιού Βίκυ - Ποιος Θεός θα με δικάσει [1970, Ευαγγ. Πιστιλαδή-Γ. 
TTITLE17=Κιούρκα]
EXTD=
EXTT0=
EXTT1=
EXTT2=
EXTT3=
EXTT4=
EXTT5=
EXTT6=
EXTT7=
EXTT8=
EXTT9=
EXTT10=
EXTT11=
EXTT12=
EXTT13=
EXTT14=
EXTT15=
EXTT16=
EXTT17=
PLAYORDER=
